<svg xmlns="http://www.w3.org/2000/svg" xmlns:xlink="http://www.w3.org/1999/xlink" width="500" zoomAndPan="magnify" viewBox="0 0 375 374.999991" height="500" preserveAspectRatio="xMidYMid meet" version="1.0"><defs><g/></defs><g fill="#8b5cf6" fill-opacity="1"><g transform="translate(27.953696, 359.759055)"><g><path d="M 182.5625 -350.109375 C 202.226562 -350.109375 220.644531 -346.441406 237.8125 -339.109375 C 254.988281 -331.773438 270.160156 -321.601562 283.328125 -308.59375 C 296.503906 -295.59375 306.84375 -280.503906 314.34375 -263.328125 C 321.851562 -246.160156 325.609375 -227.738281 325.609375 -208.0625 C 325.609375 -188.726562 321.9375 -170.472656 314.59375 -153.296875 C 307.257812 -136.128906 297.085938 -121.039062 284.078125 -108.03125 C 271.078125 -95.03125 256.070312 -84.859375 239.0625 -77.515625 C 222.0625 -70.179688 203.726562 -66.515625 184.0625 -66.515625 L 184.0625 0 L 15 0 L 15 -350.109375 Z M 182.5625 -350.109375 "/></g></g></g><path fill="#ffffff" d="M 593.433594 -31.90625 C 582.988281 -25.886719 558.664062 -50.234375 558.664062 -50.234375 C 558.664062 -50.234375 549.914062 -83.503906 560.378906 -89.511719 L 612.476562 -119.445312 C 590.066406 -134.105469 560.46875 -135.972656 535.691406 -121.742188 C 511.554688 -107.867188 498.277344 -82.367188 498.835938 -56.367188 C 414.484375 3.226562 324.761719 54.777344 230.792969 97.605469 C 208.636719 83.988281 179.902344 82.613281 155.757812 96.480469 C 130.960938 110.730469 117.6875 137.246094 119.046875 163.976562 L 171.136719 134.042969 C 181.601562 128.046875 205.917969 152.394531 205.917969 152.394531 C 205.917969 152.394531 214.667969 185.671875 204.214844 191.671875 L 152.121094 221.585938 C 174.507812 236.25 204.097656 238.148438 228.894531 223.898438 C 252.492188 210.359375 265.644531 185.691406 265.703125 160.316406 C 350.527344 100.316406 440.808594 48.488281 535.367188 5.429688 C 557.324219 18.15625 585.230469 19.21875 608.824219 5.6875 C 633.605469 -8.550781 646.902344 -35.078125 645.535156 -61.820312 Z M 593.433594 -31.90625 " fill-opacity="1" fill-rule="nonzero"/></svg>